<svg xmlns="http://www.w3.org/2000/svg" xmlns:xlink="http://www.w3.org/1999/xlink" width="24" height="24" viewBox="0 0 24 24">
  <defs>
    <rect id="rect-1" width="24" height="24" x="0" y="0"/>
    <mask id="mask-2" maskContentUnits="userSpaceOnUse" maskUnits="userSpaceOnUse">
      <rect width="24" height="24" x="0" y="0" fill="black"/>
      <use fill="white" xlink:href="#rect-1"/>
    </mask>
  </defs>
  <g>
    <use fill="none" xlink:href="#rect-1"/>
    <g mask="url(#mask-2)">
      <path fill="none" stroke="rgb(189,189,189)" stroke-dasharray="0 0 0 0" stroke-linecap="round" stroke-linejoin="round" stroke-width="2" d="M20 21H4c-.55228475 0-1-.44771525-1-1V5c0-.55228475.44771525-1 1-1h16c.55228475 0 1 .44771525 1 1v15c0 .55228475-.44771525 1-1 1h0z"/>
      <path fill="none" stroke="rgb(189,189,189)" stroke-dasharray="0 0 0 0" stroke-linecap="round" stroke-linejoin="round" stroke-width="2" d="M20 4H4c-.55228475 0-1 .44771525-1 1v4h18V5c0-.55228475-.44771525-1-1-1h0z"/>
      <path fill="none" stroke="rgb(189,189,189)" stroke-dasharray="0 0 0 0" stroke-linecap="round" stroke-linejoin="round" stroke-width="2" d="M17 3v2"/>
      <path fill="none" stroke="rgb(189,189,189)" stroke-dasharray="0 0 0 0" stroke-linecap="round" stroke-linejoin="round" stroke-width="2" d="M12 3v2"/>
      <path fill="none" stroke="rgb(189,189,189)" stroke-dasharray="0 0 0 0" stroke-linecap="round" stroke-linejoin="round" stroke-width="2" d="M7 3v2"/>
    </g>
  </g>
</svg>
