<svg width="24" height="24" viewBox="0 0 24 24" fill="none" xmlns="http://www.w3.org/2000/svg">
<g clip-path="url(#clip0_12_1208)">
<path d="M7.5 22.125C8.53553 22.125 9.375 21.2855 9.375 20.25C9.375 19.2145 8.53553 18.375 7.5 18.375C6.46447 18.375 5.625 19.2145 5.625 20.25C5.625 21.2855 6.46447 22.125 7.5 22.125Z" fill="#8A9A5B"/>
<path d="M17.25 22.125C18.2855 22.125 19.125 21.2855 19.125 20.25C19.125 19.2145 18.2855 18.375 17.25 18.375C16.2145 18.375 15.375 19.2145 15.375 20.25C15.375 21.2855 16.2145 22.125 17.25 22.125Z" fill="#8A9A5B"/>
<path d="M3.96562 6.75H20.7844L18.525 14.6625C18.4353 14.9761 18.2458 15.2519 17.9853 15.4481C17.7248 15.6444 17.4074 15.7503 17.0812 15.75H7.66875C7.34259 15.7503 7.0252 15.6444 6.76468 15.4481C6.50416 15.2519 6.31469 14.9761 6.225 14.6625L3.04688 3.54375C3.00203 3.38696 2.9073 3.24905 2.77704 3.15093C2.64677 3.05282 2.48808 2.99983 2.325 3H1.125" stroke="#8A9A5B" stroke-width="2" stroke-linecap="round" stroke-linejoin="round"/>
<circle cx="20" cy="7" r="4" fill="#FF0000" stroke="#FEFEFE" stroke-width="2"/>
</g>
<defs>
<clipPath id="clip0_12_1208">
<rect width="24" height="24" fill="white"/>
</clipPath>
</defs>
</svg>
