<svg xmlns="http://www.w3.org/2000/svg" xmlns:xlink="http://www.w3.org/1999/xlink" width="80" height="80" viewBox="0 0 80 80">
  <defs>
    <rect id="rect-2" width="38.4" height="38.4" x="20.8" y="20.8"/>
    <mask id="mask-3" maskContentUnits="userSpaceOnUse" maskUnits="userSpaceOnUse">
      <rect width="80" height="80" x="0" y="0" fill="black"/>
      <use fill="white" xlink:href="#rect-2"/>
    </mask>
  </defs>
  <g>
    <ellipse cx="40" cy="40" fill="rgb(236,239,229)" rx="40" ry="40"/>
    <g>
      <use fill="none" xlink:href="#rect-2"/>
      <g mask="url(#mask-3)">
        <path fill="none" stroke="rgb(138,154,91)" stroke-dasharray="0 0 0 0" stroke-linecap="round" stroke-linejoin="round" stroke-width="2" d="M46.4 32c0 3.5346224-2.8653776 6.4-6.4 6.4-3.5346224 0-6.4-2.8653776-6.4-6.4 0-3.5346224 2.8653776-6.4 6.4-6.4 3.5346224 0 6.4 2.8653776 6.4 6.4h0z"/>
        <path fill="none" stroke="rgb(138,154,91)" stroke-dasharray="0 0 0 0" stroke-linecap="round" stroke-linejoin="round" stroke-width="2" d="M44.8 44.8h-9.6c-4.418278 0-8 3.581722-8 8h0c0 .8836556.7163444 1.6 1.6 1.6h22.4c.8836556 0 1.6-.7163444 1.6-1.6h0c0-4.418278-3.581722-8-8-8h0z"/>
      </g>
    </g>
  </g>
</svg>
