<svg xmlns="http://www.w3.org/2000/svg" xmlns:xlink="http://www.w3.org/1999/xlink" width="50" height="50" viewBox="0 0 50 50">
  <defs>
    <rect id="rect-2" width="24" height="24" x="13" y="13"/>
    <mask id="mask-3" maskContentUnits="userSpaceOnUse" maskUnits="userSpaceOnUse">
      <rect width="50" height="50" x="0" y="0" fill="black"/>
      <use fill="white" xlink:href="#rect-2"/>
    </mask>
  </defs>
  <g>
    <ellipse cx="25" cy="25" fill="rgb(236,239,229)" rx="25" ry="25"/>
    <g>
      <use fill="none" xlink:href="#rect-2"/>
      <g mask="url(#mask-3)">
        <path fill="none" stroke="rgb(138,154,91)" stroke-dasharray="0 0 0 0" stroke-linecap="round" stroke-linejoin="round" stroke-width="2" d="M29 20c0 2.209139-1.790861 4-4 4s-4-1.790861-4-4 1.790861-4 4-4 4 1.790861 4 4h0z"/>
        <path fill="none" stroke="rgb(138,154,91)" stroke-dasharray="0 0 0 0" stroke-linecap="round" stroke-linejoin="round" stroke-width="2" d="M28 28h-6c-2.76142375 0-5 2.23857625-5 5h0c0 .55228475.44771525 1 1 1h14c.55228475 0 1-.44771525 1-1h0c0-2.76142375-2.23857625-5-5-5h0z"/>
      </g>
    </g>
  </g>
</svg>
