<svg xmlns="http://www.w3.org/2000/svg" xmlns:xlink="http://www.w3.org/1999/xlink" width="120" height="120" viewBox="0 0 120 120">
  <defs>
    <rect id="rect-2" width="70" height="70" x="25" y="38.5"/>
    <mask id="mask-3" maskContentUnits="userSpaceOnUse" maskUnits="userSpaceOnUse">
      <rect width="120" height="120" x="0" y="0" fill="black"/>
      <use fill="white" xlink:href="#rect-2"/>
    </mask>
    <rect id="rect-8" width="32" height="32" x="46" y="67.5"/>
    <mask id="mask-9" maskContentUnits="userSpaceOnUse" maskUnits="userSpaceOnUse">
      <rect width="120" height="120" x="0" y="0" fill="black"/>
      <use fill="white" xlink:href="#rect-8"/>
    </mask>
  </defs>
  <g>
    <ellipse cx="60" cy="60" fill="rgb(236,239,229)" rx="60" ry="60"/>
    <g>
      <g>
        <use fill="none" xlink:href="#rect-2"/>
        <g mask="url(#mask-3)">
          <path fill="rgb(138,154,91)" fill-rule="evenodd" d="M77.9375 99.75h-35.875c-1.44488525.01861572-2.6855774-1.02357483-2.91667175-2.44999695L33.75 64.75h52.5l-5.42500305 32.55000305C80.59558105 98.71542358 79.37139893 99.7541504 77.9375 99.75z"/>
          <path fill="none" stroke="rgb(138,154,91)" stroke-dasharray="0 0 0 0" stroke-linecap="round" stroke-linejoin="round" stroke-width="2" d="M77.9375 99.75h-35.875c-1.44489563.01859672-2.68558389-1.02358142-2.91666667-2.45L33.75 64.75h52.5L80.825 97.3c-.22941591 1.4154149-1.45361928 2.4541329-2.8875 2.45h0z"/>
          <path fill="none" stroke="rgb(138,154,91)" stroke-dasharray="0 0 0 0" stroke-linecap="round" stroke-linejoin="round" stroke-width="4" d="M51.25 47.25l-5.83333333 17.5"/>
          <path fill="none" stroke="rgb(138,154,91)" stroke-dasharray="0 0 0 0" stroke-linecap="round" stroke-linejoin="round" stroke-width="4" d="M68.75 47.25l5.83333333 17.5"/>
        </g>
      </g>
      <g>
        <use fill="none" xlink:href="#rect-8"/>
        <g mask="url(#mask-9)">
          <g>
            <path fill="none" stroke="rgb(255,255,255)" stroke-dasharray="0 0 0 0" stroke-linecap="round" stroke-linejoin="round" stroke-width="4" d="M68.66666667 80.83333333c0 5.15465767-4.17867567 9.33333334-9.33333334 9.33333334C54.17867567 90.16666667 50 85.987991 50 80.83333333 50 75.67867567 54.17867567 71.5 59.33333333 71.5c5.15465767 0 9.33333334 4.17867567 9.33333334 9.33333333h0z"/>
            <path fill="none" stroke="rgb(255,255,255)" stroke-dasharray="0 0 0 0" stroke-linecap="round" stroke-linejoin="round" stroke-width="4" d="M72.66666667 94.16666667L66 87.5"/>
          </g>
          <path fill="none" stroke="rgb(255,255,255)" stroke-dasharray="0 0 0 0" stroke-linecap="round" stroke-linejoin="round" stroke-width="4" d="M73.33333333 94.83333333l-4.66666666-4.66666666"/>
        </g>
      </g>
      <path fill="none" stroke="rgb(138,154,91)" stroke-linecap="round" stroke-linejoin="round" stroke-width="4" d="M60 11.5v20"/>
      <path fill="none" stroke="rgb(138,154,91)" stroke-linecap="round" stroke-linejoin="round" stroke-width="4" d="M95.00000113 25.50000066L87.99999887 37.624355"/>
      <path fill="none" stroke="rgb(138,154,91)" stroke-linecap="round" stroke-linejoin="round" stroke-width="4" d="M27.99999887 25.50000066L35.00000113 37.624355"/>
    </g>
  </g>
</svg>
