<svg width="16" height="16" viewBox="0 0 16 16" fill="none" xmlns="http://www.w3.org/2000/svg">
<path fill-rule="evenodd" clip-rule="evenodd" d="M13.2 6.83636C13.2 10.9091 8 14.4 8 14.4C8 14.4 2.8 10.9091 2.8 6.83636C2.8 3.9444 5.12812 1.6 8 1.6C10.8719 1.6 13.2 3.9444 13.2 6.83636Z" fill="#E96341"/>
<path fill-rule="evenodd" clip-rule="evenodd" d="M13.2 6.83636C13.2 10.9091 8 14.4 8 14.4C8 14.4 2.8 10.9091 2.8 6.83636C2.8 3.9444 5.12812 1.6 8 1.6C10.8719 1.6 13.2 3.9444 13.2 6.83636V6.83636Z" stroke="#E96341" stroke-width="2" stroke-linecap="round" stroke-linejoin="round"/>
<path d="M8 8.5816C8.95744 8.5816 9.7336 7.80007 9.7336 6.836C9.7336 5.87193 8.95744 5.0904 8 5.0904C7.04256 5.0904 6.2664 5.87193 6.2664 6.836C6.2664 7.80007 7.04256 8.5816 8 8.5816Z" fill="#FEFEFE"/>
<path d="M8 8.5816C8.95744 8.5816 9.7336 7.80007 9.7336 6.836C9.7336 5.87193 8.95744 5.0904 8 5.0904C7.04256 5.0904 6.2664 5.87193 6.2664 6.836C6.2664 7.80007 7.04256 8.5816 8 8.5816Z" stroke="#FEFEFE" stroke-width="2" stroke-linecap="round" stroke-linejoin="round"/>
</svg>
