<svg xmlns="http://www.w3.org/2000/svg" xmlns:xlink="http://www.w3.org/1999/xlink" width="24" height="24" viewBox="0 0 24 24">
  <defs>
    <rect id="rect-1" width="24" height="24" x="0" y="0"/>
    <mask id="mask-2" maskContentUnits="userSpaceOnUse" maskUnits="userSpaceOnUse">
      <rect width="24" height="24" x="0" y="0" fill="black"/>
      <use fill="white" xlink:href="#rect-1"/>
    </mask>
  </defs>
  <g>
    <use fill="none" xlink:href="#rect-1"/>
    <g mask="url(#mask-2)">
      <path fill="none" stroke="rgb(189,189,189)" stroke-dasharray="0 0 0 0" stroke-linecap="round" stroke-linejoin="round" stroke-width="2" d="M15 12c0 1.65685425-1.34314575 3-3 3s-3-1.34314575-3-3 1.34314575-3 3-3 3 1.34314575 3 3h0z"/>
      <path fill="none" stroke="rgb(189,189,189)" stroke-dasharray="0 0 0 0" stroke-linecap="round" stroke-linejoin="round" stroke-width="2" d="M20 10h-.59c-.42361743-.00168758-.8002085-.27010888-.94-.67h0c-.18235816-.38389122-.10214447-.84110925.2-1.14l.41-.41c.18931265-.1877666.29579832-.44336246.29579832-.71 0-.26663754-.10648567-.5222334-.29579832-.71l-1.42-1.43c-.1877666-.18931265-.44336246-.29579832-.71-.29579832-.26663754 0-.5222334.10648567-.71.29579832l-.41.41c-.29889075.30214447-.75610878.38235816-1.14.2h0c-.41126397-.13409783-.68968135-.5174261-.69-.95V4c0-.55228475-.44771525-1-1-1h-2c-.55228475 0-1 .44771525-1 1v.59c-.00168758.42361743-.27010888.8002085-.67.94h0c-.38389122.18235816-.84110925.10214447-1.14-.2l-.41-.41c-.1877666-.18931265-.44336246-.29579832-.71-.29579832-.26663754 0-.5222334.10648567-.71.29579832L4.93 6.34c-.18931265.1877666-.29579832.44336246-.29579832.71 0 .26663754.10648567.5222334.29579832.71l.41.41c.30214447.29889075.38235816.75610878.2 1.14h0c-.1397915.39989112-.51638257.66831242-.94.67H4c-.55228475 0-1 .44771525-1 1v2c0 .55228475.44771525 1 1 1h.59c.42361743.00168758.8002085.27010888.94.67h0c.18235816.38389122.10214447.84110925-.2 1.14l-.41.41c-.18931265.1877666-.29579832.44336246-.29579832.71 0 .26663754.10648567.5222334.29579832.71l1.41 1.41c.1877666.18931265.44336246.29579832.71.29579832.26663754 0 .5222334-.10648567.71-.29579832l.41-.41c.29889075-.30214447.75610878-.38235816 1.14-.2h0c.39989112.1397915.66831242.51638257.67.94V20c0 .55228475.44771525 1 1 1h2c.55228475 0 1-.44771525 1-1v-.59c.00168758-.42361743.27010888-.8002085.67-.94h0c.38389122-.18235816.84110925-.10214447 1.14.2l.41.41c.1877666.18931265.44336246.29579832.71.29579832.26663754 0 .5222334-.10648567.71-.29579832l1.41-1.41c.18931265-.1877666.29579832-.44336246.29579832-.71 0-.26663754-.10648567-.5222334-.29579832-.71l-.41-.41c-.30214447-.29889075-.38235816-.75610878-.2-1.14h0c.1397915-.39989112.51638257-.66831242.94-.67H20c.55228475 0 1-.44771525 1-1V11c0-.55228475-.44771525-1-1-1h0z"/>
    </g>
  </g>
</svg>
