<svg xmlns="http://www.w3.org/2000/svg" xmlns:xlink="http://www.w3.org/1999/xlink" width="24" height="24" viewBox="0 0 24 24">
  <defs>
    <rect id="rect-1" width="24" height="24" x="0" y="0"/>
    <mask id="mask-2" maskContentUnits="userSpaceOnUse" maskUnits="userSpaceOnUse">
      <rect width="24" height="24" x="0" y="0" fill="black"/>
      <use fill="white" xlink:href="#rect-1"/>
    </mask>
  </defs>
  <g>
    <use fill="none" xlink:href="#rect-1"/>
    <g mask="url(#mask-2)">
      <g>
        <path fill="none" stroke="rgb(138,154,91)" stroke-dasharray="0 0 0 0" stroke-linecap="round" stroke-linejoin="round" stroke-width="2" d="M18 15V6c0-.55228475-.44771525-1-1-1H6c-.55228475 0-1 .44771525-1 1v10c0 .55228475.44771525 1 1 1h2"/>
        <path fill="none" stroke="rgb(138,154,91)" stroke-linecap="round" stroke-linejoin="round" stroke-width="2" d="M1.5 8.5h6"/>
        <path fill="none" stroke="rgb(138,154,91)" stroke-linecap="round" stroke-linejoin="round" stroke-width="2" d="M2.5 11.5h6"/>
      </g>
      <path fill="none" stroke="rgb(138,154,91)" stroke-dasharray="0 0 0 0" stroke-linecap="round" stroke-linejoin="round" stroke-width="2" d="M16 17h-4"/>
      <g>
        <path fill="none" stroke="rgb(138,154,91)" stroke-dasharray="0 0 0 0" stroke-linecap="round" stroke-linejoin="round" stroke-width="2" d="M12 17c0 1.1045695-.8954305 2-2 2s-2-.8954305-2-2 .8954305-2 2-2 2 .8954305 2 2h0z"/>
        <path fill="none" stroke="rgb(138,154,91)" stroke-dasharray="0 0 0 0" stroke-linecap="round" stroke-linejoin="round" stroke-width="2" d="M18 15c-1.1045695 0-2 .8954305-2 2s.8954305 2 2 2 2-.8954305 2-2-.8954305-2-2-2h0z"/>
      </g>
      <path fill="none" stroke="rgb(138,154,91)" stroke-dasharray="0 0 0 0" stroke-linecap="round" stroke-linejoin="round" stroke-width="2" d="M20 17h2c.55228475 0 1-.44771525 1-1v-4l-1.72-3.45c-.17106553-.3395038-.51984313-.55264567-.9-.55H18"/>
    </g>
  </g>
</svg>
