<svg xmlns="http://www.w3.org/2000/svg" xmlns:xlink="http://www.w3.org/1999/xlink" width="80" height="80" viewBox="0 0 80 80">
  <defs>
    <rect id="rect-1" width="80" height="80" x="0" y="0"/>
    <mask id="mask-2" maskContentUnits="userSpaceOnUse" maskUnits="userSpaceOnUse">
      <rect width="80" height="80" x="0" y="0" fill="black"/>
      <use fill="white" xlink:href="#rect-1"/>
    </mask>
  </defs>
  <g>
    <use fill="none" xlink:href="#rect-1"/>
    <g mask="url(#mask-2)">
      <path fill="rgb(37,211,102)" fill-rule="evenodd" d="M40 80c22.09133333 0 40-17.90866667 40-40C80 17.9086 62.09133333 0 40 0 17.9086 0 0 17.9086 0 40c0 22.09133333 17.9086 40 40 40z"/>
      <path fill="rgb(253,253,253)" fill-rule="evenodd" d="M41.31834412 62.2543335h-.00967408c-3.98066711-.00134278-7.89233398-1.0003357-11.36636352-2.89500428l-12.6089325 3.30734253 3.37435913-12.32533264c-2.08146667-3.60700989-3.1767273-7.69866943-3.17492675-11.89100647.00520324-13.11410522 10.67526245-23.78359985 23.78553772-23.78359985 6.36265564.00276947 12.33467102 2.47979736 16.82533264 6.97570038 4.49066162 4.49565887 6.96232605 10.47153473 6.95999145 16.82689666-.00532531 13.11132813-10.67098999 23.77966309-23.7853241 23.78500367zm-10.7918396-7.20098877l.7218933.42832946c3.03526307 1.80133057 6.51460267 2.7543335 10.06193543 2.75566102h.0083313c10.8959961 0 19.76467896-8.8686676 19.76901245-19.7693329.00198364-5.28256225-2.05233764-10.24943542-5.78500366-13.98626708-3.73234558-3.73683167-8.69599915-5.79576874-13.97633362-5.7975998-10.90473938 0-19.77334595 8.86780549-19.77767944 19.76786042-.00152588 3.7353363 1.04367065 7.3733368 3.02261352 10.52067566l.47006226.7480011-1.99716187 7.29533386 7.48233033-1.96266174zm22.77482605-10.92800904c-.11967469-.19966125-.39933777-.33465576-.81401062-.53500366-.10032654-.04866028-.20899964-.10131836-.32499695-.15933227-.59432984-.29733277-3.5163269-1.73500061-4.06100464-1.93333435-.54466248-.19831849-.94099426-.29733277-1.33732605.29734802-.3959961.59498596-1.53500366 1.93365478-1.8816681 2.33032226-.34666442.39633179-.69332885.44633484-1.28765868.14866639-.09700012-.04866028-.2293396-.10600281-.39266968-.17700196-.83666992-.36265564-2.4873352-1.07865906-4.38667297-2.7726593-1.7666626-1.57600403-2.95933533-3.52200317-3.30599976-4.1170044-.34666443-.59500121-.03700256-.91665649.2603302-1.21299743.17800903-.17733765.38267517-.42633057.58700562-.67533875.10266113-.125.20533752-.25.30467224-.36599731.2523346-.29466248.3619995-.5183258.51066589-.82199097.02632141-.05368042.05400085-.10968017.08366394-.16934204.19799805-.39666748.09899902-.74372864-.04966736-1.04122925-.09933471-.19906616-.66433716-1.57476806-1.17599487-2.81980896-.25267029-.6156311-.49234009-1.19932556-.65634155-1.59303283-.42599488-1.02316284-.85766602-1.02062989-1.20399475-1.01860047-.04600525.00027466-.09033204.00053406-.13301087-.00158691-.34632873-.01741028-.74305725-.02107239-1.13922119-.02107239s-1.04006958.1487732-1.58483887.74375916c-.03489685.03814697-.07389831.07977295-.116333.125-.61897278.6605072-1.96369935 2.09536743-1.96369935 4.83294677 0 2.90995789 2.10740662 5.72195435 2.42193604 6.14163208l.00479126.0063324c.0194397.02600098.05430603.07598877.10417175.14732361.71159363 1.02067566 4.47686768 6.42066956 10.04853821 8.82667541 1.41766357.61233521 2.5246582.97799683 3.38800049 1.25166321 1.42366028.45266724 2.71932983.38867188 3.7433319.235672 1.1416626-.17066956 3.51599122-1.43766785 4.01165772-2.82600403.49501038-1.38833618.49501038-2.57833862.346344-2.82600403z"/>
    </g>
  </g>
</svg>
